<svg width="523" height="523" xmlns="http://www.w3.org/2000/svg" xmlns:xlink="http://www.w3.org/1999/xlink" xml:space="preserve" overflow="hidden"><g transform="translate(-126 -247)"><path d="M387.5 486.708C360.26 486.708 338.469 464.917 338.469 437.677 338.469 410.438 360.26 388.646 387.5 388.646 414.74 388.646 436.531 410.438 436.531 437.677 436.531 464.917 414.74 486.708 387.5 486.708ZM387.5 323.271C349.909 323.271 314.498 341.794 293.251 373.392 272.004 404.445 267.646 444.215 281.266 479.626L333.021 594.032 377.694 687.736C379.328 691.55 383.142 693.729 387.5 693.729 391.858 693.729 395.672 691.55 397.306 687.736L441.979 594.032 493.734 479.626C507.354 444.215 502.996 404.445 481.749 373.392 460.502 341.794 425.091 323.271 387.5 323.271Z" fill="#305884"/></g></svg>