<svg width="45" height="46" xmlns="http://www.w3.org/2000/svg" xmlns:xlink="http://www.w3.org/1999/xlink" xml:space="preserve" overflow="hidden"><g transform="translate(-50 -189)"><path d="M6.5625 30.4688 8.4375 30.4688 8.4375 32.3438 6.5625 32.3438 6.5625 30.4688ZM6.5625 26.7188 8.4375 26.7188 8.4375 28.5938 6.5625 28.5938 6.5625 26.7188ZM6.5625 22.9688 8.4375 22.9688 8.4375 24.8438 6.5625 24.8438 6.5625 22.9688ZM10.3125 30.4688 12.1875 30.4688 12.1875 32.3438 10.3125 32.3438 10.3125 30.4688ZM10.3125 26.7188 12.1875 26.7188 12.1875 28.5938 10.3125 28.5938 10.3125 26.7188ZM10.3125 22.9688 12.1875 22.9688 12.1875 24.8438 10.3125 24.8438 10.3125 22.9688ZM3.75 37.0312 8.4375 37.0312 8.4375 34.2188 10.3125 34.2188 10.3125 37.0312 15 37.0312 15 20.1562 3.75 20.1562 3.75 37.0312Z" fill="#D40C0F" transform="matrix(1 0 0 1.02222 50 189)"/><path d="M19.6875 30.4688 21.5625 30.4688 21.5625 32.3438 19.6875 32.3438 19.6875 30.4688ZM19.6875 26.7188 21.5625 26.7188 21.5625 28.5938 19.6875 28.5938 19.6875 26.7188ZM23.4375 30.4688 25.3125 30.4688 25.3125 32.3438 23.4375 32.3438 23.4375 30.4688ZM23.4375 26.7188 25.3125 26.7188 25.3125 28.5938 23.4375 28.5938 23.4375 26.7188ZM16.875 37.0312 21.5625 37.0312 21.5625 34.2188 23.4375 34.2188 23.4375 37.0312 28.125 37.0312 28.125 23.9062 16.875 23.9062 16.875 37.0312Z" fill="#D40C0F" transform="matrix(1 0 0 1.02222 50 189)"/><path d="M38.4375 14.0625 36.5625 14.0625 36.5625 12.1875 38.4375 12.1875 38.4375 14.0625ZM38.4375 17.3438 36.5625 17.3438 36.5625 15.4688 38.4375 15.4688 38.4375 17.3438ZM38.4375 21.0938 36.5625 21.0938 36.5625 19.2188 38.4375 19.2188 38.4375 21.0938ZM38.4375 24.8438 36.5625 24.8438 36.5625 22.9688 38.4375 22.9688 38.4375 24.8438ZM38.4375 28.5938 36.5625 28.5938 36.5625 26.7188 38.4375 26.7188 38.4375 28.5938ZM38.4375 32.3438 36.5625 32.3438 36.5625 30.4688 38.4375 30.4688 38.4375 32.3438ZM34.6875 14.0625 32.8125 14.0625 32.8125 12.1875 34.6875 12.1875 34.6875 14.0625ZM34.6875 17.3438 32.8125 17.3438 32.8125 15.4688 34.6875 15.4688 34.6875 17.3438ZM34.6875 21.0938 32.8125 21.0938 32.8125 19.2188 34.6875 19.2188 34.6875 21.0938ZM34.6875 24.8438 32.8125 24.8438 32.8125 22.9688 34.6875 22.9688 34.6875 24.8438ZM34.6875 28.5938 32.8125 28.5938 32.8125 26.7188 34.6875 26.7188 34.6875 28.5938ZM34.6875 32.3438 32.8125 32.3438 32.8125 30.4688 34.6875 30.4688 34.6875 32.3438ZM30 8.90625 30 37.0312 34.6875 37.0312 34.6875 34.2188 36.5625 34.2188 36.5625 37.0312 41.25 37.0312 41.25 10.3125 30 8.90625Z" fill="#D40C0F" transform="matrix(1 0 0 1.02222 50 189)"/><path d="M16.875 14.5312 18.75 14.5312 18.75 16.4062 16.875 16.4062 16.875 14.5312ZM16.875 10.7812 18.75 10.7812 18.75 12.6562 16.875 12.6562 16.875 10.7812ZM15 12.6562 13.125 12.6562 13.125 10.7812 15 10.7812 15 12.6562ZM15 16.4062 13.125 16.4062 13.125 14.5312 15 14.5312 15 16.4062ZM16.875 22.0312 21.5625 22.0312 21.5625 7.96875 10.3125 7.96875 10.3125 18.2812 16.875 18.2812 16.875 22.0312Z" fill="#D40C0F" transform="matrix(1 0 0 1.02222 50 189)"/></g></svg>