<svg width="45" height="45" xmlns="http://www.w3.org/2000/svg" xmlns:xlink="http://www.w3.org/1999/xlink" xml:space="preserve" overflow="hidden"><g transform="translate(-50 -478)"><path d="M60.7812 516.438 60.7812 484.562 72.5 484.562 72.5 494.406 84.2188 494.406 84.2188 516.438 60.7812 516.438ZM75.3125 485.734 81.1719 491.594 75.3125 491.594 75.3125 485.734ZM75.3125 481.75 57.9688 481.75 57.9688 519.25 87.0312 519.25 87.0312 492.062 75.3125 481.75Z" fill="#D40C0F"/><path d="M63.5938 499.094 81.4062 499.094 81.4062 500.969 63.5938 500.969Z" fill="#D40C0F"/><path d="M63.5938 495.344 69.6875 495.344 69.6875 497.219 63.5938 497.219Z" fill="#D40C0F"/><path d="M63.5938 502.844 81.4062 502.844 81.4062 504.719 63.5938 504.719Z" fill="#D40C0F"/><path d="M63.5938 506.594 81.4062 506.594 81.4062 508.469 63.5938 508.469Z" fill="#D40C0F"/><path d="M63.5938 510.344 81.4062 510.344 81.4062 512.219 63.5938 512.219Z" fill="#D40C0F"/></g></svg>