<svg width="51" height="51" xmlns="http://www.w3.org/2000/svg" xmlns:xlink="http://www.w3.org/1999/xlink" xml:space="preserve" overflow="hidden"><g transform="translate(-50 -330)"><path d="M60.3594 338.766C60.3594 339.206 60.0026 339.562 59.5625 339.562 59.1224 339.562 58.7656 339.206 58.7656 338.766 58.7656 338.326 59.1224 337.969 59.5625 337.969 60.0026 337.969 60.3594 338.326 60.3594 338.766Z" stroke="#D40C0F" stroke-width="0.796875" fill="#D40C0F"/><path d="M64.3438 338.766C64.3438 339.206 63.987 339.562 63.5469 339.562 63.1068 339.562 62.75 339.206 62.75 338.766 62.75 338.326 63.1068 337.969 63.5469 337.969 63.987 337.969 64.3438 338.326 64.3438 338.766Z" stroke="#D40C0F" stroke-width="0.796875" fill="#D40C0F"/><path d="M68.3281 338.766C68.3281 339.206 67.9714 339.562 67.5312 339.562 67.0911 339.562 66.7344 339.206 66.7344 338.766 66.7344 338.326 67.0911 337.969 67.5312 337.969 67.9714 337.969 68.3281 338.326 68.3281 338.766Z" stroke="#D40C0F" stroke-width="0.796875" fill="#D40C0F"/><path d="M92.2344 342.75 55.5781 342.75C55.138 342.75 54.7812 342.393 54.7812 341.953 54.7812 341.513 55.138 341.156 55.5781 341.156L92.2344 341.156C92.6745 341.156 93.0312 341.513 93.0312 341.953 93.0312 342.393 92.6745 342.75 92.2344 342.75ZM79.4844 365.062C79.0443 365.062 78.6875 364.706 78.6875 364.266L78.6875 361.078C78.6875 360.638 79.0443 360.281 79.4844 360.281 79.9245 360.281 80.2812 360.638 80.2812 361.078L80.2812 364.266C80.2812 364.706 79.9245 365.062 79.4844 365.062ZM93.9158 372.234 93.9158 372.234C94.1909 372.506 94.2313 372.936 94.0114 373.254 93.2068 374.355 92.214 375.304 91.0789 376.059 90.9535 376.158 90.7999 376.214 90.6406 376.219 90.2005 376.215 89.8465 375.856 89.8499 375.416 89.852 375.153 89.9838 374.907 90.2023 374.76 91.1698 374.113 92.0187 373.305 92.7125 372.37 92.9595 372.006 93.4549 371.91 93.8192 372.157 93.8534 372.181 93.8857 372.206 93.9158 372.234Z" stroke="#D40C0F" stroke-width="0.796875" fill="#D40C0F"/><path d="M96.2188 362.385 96.2188 366.489C96.2207 367.718 96.0243 368.94 95.637 370.107 95.4891 370.521 95.0332 370.737 94.6187 370.589 94.5071 370.55 94.4059 370.485 94.3222 370.402L94.3222 370.402C94.1191 370.19 94.0487 369.884 94.1389 369.605 94.4608 368.597 94.6248 367.546 94.625 366.489L94.625 362.385C94.6532 361.741 94.1936 361.179 93.5572 361.078 93.2172 361.039 92.877 361.15 92.6248 361.381 92.3747 361.61 92.2329 361.934 92.2344 362.273 92.2344 362.714 91.8776 363.07 91.4375 363.07 90.9974 363.07 90.6406 362.714 90.6406 362.273L90.6406 360.791C90.6688 360.147 90.2093 359.585 89.5728 359.484 89.2328 359.445 88.8926 359.556 88.6405 359.787 88.3903 360.016 88.2485 360.34 88.25 360.68 88.25 361.12 87.8932 361.477 87.4531 361.477 87.013 361.477 86.6562 361.12 86.6562 360.68L86.6562 359.994C86.6845 359.351 86.2249 358.788 85.5884 358.688 85.2484 358.648 84.9082 358.759 84.6561 358.99 84.406 359.219 84.2641 359.544 84.2656 359.883 84.2656 360.323 83.9089 360.68 83.4688 360.68 83.0286 360.68 82.6719 360.323 82.6719 359.883L82.6719 352.711C82.6756 352.051 82.1435 351.513 81.4834 351.509 81.4386 351.509 81.3937 351.511 81.3491 351.516 80.7126 351.616 80.253 352.179 80.2812 352.823L80.2812 361.078C80.2812 361.518 79.9245 361.875 79.4844 361.875 79.0443 361.875 78.6875 361.518 78.6875 361.078 78.6882 359.758 77.6185 358.687 76.2982 358.686 76.2712 358.686 76.2442 358.687 76.2172 358.688 75.8085 358.729 75.4979 359.074 75.5 359.484L75.5 366.489C75.4983 369.812 77.1581 372.916 79.9227 374.76 80.2654 375.037 80.3194 375.538 80.0434 375.881 79.8029 376.179 79.3839 376.264 79.0461 376.083 75.8412 373.956 73.9123 370.367 73.9062 366.521L73.9062 359.484C73.9044 358.212 74.8991 357.162 76.1694 357.094 77.0749 357.065 77.9631 357.346 78.6875 357.891L78.6875 352.823C78.663 351.36 79.7395 350.112 81.1897 349.922 82.717 349.759 84.0871 350.865 84.25 352.392 84.2613 352.498 84.2665 352.605 84.2656 352.711L84.2656 357.365C84.7266 357.144 85.2384 357.05 85.7478 357.094 86.5987 357.193 87.3567 357.678 87.8037 358.409 89.0369 357.508 90.7668 357.777 91.6677 359.01 91.847 359.256 91.9846 359.529 92.075 359.819 92.5762 359.545 93.1481 359.429 93.7166 359.484 95.1667 359.675 96.2433 360.923 96.2188 362.385ZM55.5781 352.312 55.5781 352.312C55.138 352.312 54.7812 351.956 54.7812 351.516L54.7812 337.969C54.7812 336.208 56.2083 334.781 57.9688 334.781L73.1094 334.781C73.5495 334.781 73.9062 335.138 73.9062 335.578 73.9062 336.018 73.5495 336.375 73.1094 336.375L57.9688 336.375C57.0885 336.375 56.375 337.089 56.375 337.969L56.375 351.516C56.375 351.956 56.0182 352.312 55.5781 352.312Z" stroke="#D40C0F" stroke-width="0.796875" fill="#D40C0F"/><path d="M75.5 364.266C75.5 364.706 75.1432 365.062 74.7031 365.062L57.9688 365.062C56.2083 365.062 54.7812 363.635 54.7812 361.875L54.7812 354.703C54.7812 354.263 55.138 353.906 55.5781 353.906L55.5781 353.906C56.0182 353.906 56.375 354.263 56.375 354.703L56.375 361.875C56.375 362.755 57.0885 363.469 57.9688 363.469L74.7031 363.469C75.1432 363.469 75.5 363.826 75.5 364.266Z" stroke="#D40C0F" stroke-width="0.796875" fill="#D40C0F"/><path d="M76.2969 334.781C76.737 334.781 77.0938 335.138 77.0938 335.578L77.0938 335.578C77.0938 336.018 76.737 336.375 76.2969 336.375L76.2969 336.375C75.8568 336.375 75.5 336.018 75.5 335.578L75.5 335.578C75.5 335.138 75.8568 334.781 76.2969 334.781Z" stroke="#D40C0F" stroke-width="0.796875" fill="#D40C0F"/><path d="M93.0312 337.969 93.0312 360.68C93.0312 361.12 92.6745 361.477 92.2344 361.477 91.7943 361.477 91.4375 361.12 91.4375 360.68L91.4375 337.969C91.4375 337.089 90.724 336.375 89.8438 336.375L79.4844 336.375C79.0443 336.375 78.6875 336.018 78.6875 335.578L78.6875 335.578C78.6875 335.138 79.0443 334.781 79.4844 334.781L89.8438 334.781C91.6041 334.781 93.0312 336.208 93.0312 337.969Z" stroke="#D40C0F" stroke-width="0.796875" fill="#D40C0F"/><path d="M86.1064 353.109 83.4688 353.109C83.0286 353.109 82.6719 352.753 82.6719 352.312 82.6719 351.872 83.0286 351.516 83.4688 351.516L86.1463 351.516C86.5044 351.517 86.8504 351.386 87.1184 351.149 87.3457 350.945 87.4809 350.657 87.493 350.352 87.4693 349.648 86.8796 349.097 86.1758 349.121 86.1526 349.122 86.1295 349.123 86.1064 349.125L79.2373 349.125C78.8792 349.124 78.5332 349.254 78.2652 349.492 78.0378 349.696 77.9027 349.983 77.8906 350.288 77.9159 350.992 78.5069 351.542 79.2106 351.517 79.2195 351.517 79.2284 351.516 79.2373 351.516L79.5481 351.516C79.9882 351.516 80.345 351.872 80.345 352.312 80.345 352.753 79.9882 353.109 79.5481 353.109L79.2373 353.109C77.6575 353.145 76.3446 351.9 76.2969 350.32 76.3056 349.563 76.6254 348.842 77.1814 348.328 77.7426 347.814 78.4764 347.53 79.2373 347.531L86.1064 347.531C87.6862 347.495 88.9991 348.741 89.0469 350.32 89.0382 351.078 88.7183 351.798 88.1623 352.312 87.6011 352.826 86.8673 353.111 86.1064 353.109ZM73.1094 354.703 59.5625 354.703C59.1224 354.703 58.7656 354.346 58.7656 353.906L58.7656 345.938C58.7656 345.497 59.1224 345.141 59.5625 345.141L73.1094 345.141C73.5495 345.141 73.9062 345.497 73.9062 345.938L73.9062 353.906C73.9062 354.346 73.5495 354.703 73.1094 354.703ZM60.3594 353.109 72.3125 353.109 72.3125 346.734 60.3594 346.734ZM72.3125 357.891 60.3594 357.891C59.9193 357.891 59.5625 357.534 59.5625 357.094 59.5625 356.654 59.9193 356.297 60.3594 356.297L72.3125 356.297C72.7526 356.297 73.1094 356.654 73.1094 357.094 73.1094 357.534 72.7526 357.891 72.3125 357.891ZM67.5312 361.078 60.3594 361.078C59.9193 361.078 59.5625 360.721 59.5625 360.281 59.5625 359.841 59.9193 359.484 60.3594 359.484L67.5312 359.484C67.9714 359.484 68.3281 359.841 68.3281 360.281 68.3281 360.721 67.9714 361.078 67.5312 361.078Z" stroke="#D40C0F" stroke-width="0.796875" fill="#D40C0F"/></g></svg>