<svg width="204" height="203" xmlns="http://www.w3.org/2000/svg" xmlns:xlink="http://www.w3.org/1999/xlink" xml:space="preserve" overflow="hidden"><g transform="translate(-114 -429)"><path d="M120.108 22.2031 128.567 22.2031 128.567 47.5781 120.108 47.5781Z" fill="#FFFFFF" transform="matrix(1.00493 0 0 1 114 429)"/><path d="M149.443 46.2106 174.88 46.2106 174.88 54.6896 149.443 54.6896Z" fill="#FFFFFF" transform="matrix(-0.708851 0.705376 -0.708851 -0.705376 427.365 400.572)"/><path d="M164.515 83.526 189.89 83.526 189.89 91.9844 164.515 91.9844Z" fill="#FFFFFF" transform="matrix(1.00493 0 0 1 114 429)"/><path d="M157.922 112.771 166.401 112.771 166.401 138.208 157.922 138.208Z" fill="#FFFFFF" transform="matrix(-0.708851 0.705376 -0.708851 -0.705376 480.514 528.221)"/><path d="M58.7854 83.526 84.1604 83.526 84.1604 91.9844 58.7854 91.9844Z" fill="#FFFFFF" transform="matrix(1.00493 0 0 1 114 429)"/><path d="M83.0943 37.7316 91.5733 37.7316 91.5733 63.1686 83.0943 63.1686Z" fill="#FFFFFF" transform="matrix(-0.708851 0.705376 -0.708851 -0.705376 299.085 453.46)"/><path d="M137.025 140.62C135.968 140.62 134.91 140.62 133.853 140.831 133.853 140.831 133.853 140.62 133.853 140.62 133.853 132.584 130.047 124.76 123.28 120.108 116.725 115.245 108.267 113.976 100.443 116.514 93.8875 104.249 79.7198 97.9052 66.1865 101.289 52.6531 104.46 43.1375 116.514 42.7146 130.47 33.8333 128.778 24.3177 132.161 18.3969 139.562 12.6875 146.964 11.4187 157.114 15.225 165.572 19.0312 174.242 27.2781 179.951 36.7937 180.585L138.294 180.797C149.29 180.585 158.171 171.281 157.748 160.074 157.536 149.078 148.232 140.408 137.025 140.62Z" fill="#FFFFFF" transform="matrix(1.00493 0 0 1 114 429)"/><path d="M94.3104 97.9052C98.1167 100.231 101.711 103.403 104.46 106.998 115.456 105.729 126.241 109.747 133.642 117.994 145.906 114.187 154.787 103.403 155.845 90.5042 156.902 77.6052 150.135 65.3406 138.717 59.4198 127.298 53.499 113.342 55.1906 103.615 63.649 93.8875 72.1073 90.2927 85.6406 94.3104 97.9052L94.3104 97.9052Z" fill="#FFFFFF" transform="matrix(1.00493 0 0 1 114 429)"/></g></svg>